<svg width="1440" height="315" viewBox="0 0 1440 315" fill="none" xmlns="http://www.w3.org/2000/svg">
<rect width="165.806" height="46.7845" transform="matrix(0.00368353 0.999993 0.999995 -0.00312973 35.0139 0.146484)" fill="#056BB7" fill-opacity="0.65"/>
<path d="M248.575 40.5286C248.573 45.0132 246.869 49.3967 243.677 53.125C240.486 56.8533 235.95 59.7589 230.645 61.4744C225.339 63.19 219.501 63.6386 213.869 62.7633C208.237 61.8881 203.063 59.7284 199.003 56.5573C194.942 53.3862 192.176 49.3461 191.056 44.9477C189.935 40.5493 190.509 35.9902 192.706 31.8467C194.903 27.7032 198.624 24.1614 203.398 21.6691C208.172 19.1768 213.785 17.8458 219.528 17.8445C223.343 17.8427 227.121 18.4283 230.646 19.5677C234.171 20.707 237.374 22.3779 240.072 24.4846C242.77 26.5914 244.909 29.0927 246.368 31.8457C247.827 34.5986 248.577 37.5492 248.575 40.5286Z" fill="#00599B"/>
<path d="M-15.9999 165.806H79.989V208.93H-15.9999V165.806Z" fill="#FFAE2D"/>
<rect width="277.481" height="43.1244" transform="matrix(-1 0 0 1 276 40.1501)" fill="#030F4B"/>
<path d="M79.3792 165.515V112.272H194.53V165.515H79.3792Z" fill="#00599B"/>
<path d="M161.459 40.1501H219.536V83.2745H161.459V40.1501Z" fill="#FFAE2D"/>
<path d="M218.816 79.8748C218.816 79.8748 194.268 85.053 190.094 60.597L218.816 79.8748Z" fill="#00599B"/>
<path d="M189.691 59.4785C189.691 59.4785 165.142 64.6567 160.969 40.2008L189.691 59.4785Z" fill="#00599B"/>
<path d="M165.514 112.513L165.768 112.272L194.53 138.785L165.768 165.289L165.624 165.157L165.514 112.513Z" fill="#FFAE2D"/>
<path d="M161.458 165.056L161.196 165.289L132.443 138.785L161.196 112.272L161.349 112.412L161.458 165.056Z" fill="#CBCBBF"/>
<path d="M219.536 40.6489C219.536 40.6489 195.025 35.2887 190.647 59.7133L219.536 40.6489Z" fill="#030F4B"/>
<path d="M219.024 80.2319C219.024 80.2319 216.379 56.6085 189.861 60.626L219.024 80.2319Z" fill="#030F4B"/>
<path d="M123.393 75.4745C123.952 80.1742 123.95 78.0699 123.95 83.1483C115.481 83.6464 119.173 81.3765 113.868 83.1483C108.624 80.6723 140.986 83.1483 110.641 83.1483C101.768 83.1483 101.769 83.1483 78.3771 83.1483C67.4861 82.9029 63.453 84.0181 63.8577 81.6612C62.737 77.1187 65.3277 70.7873 67.5245 66.508C69.7213 62.2286 73.4421 58.5707 78.216 55.9966C82.99 53.4226 88.6034 52.048 94.3458 52.0466C98.1609 52.0448 101.939 52.6496 105.464 53.8263C108.989 55.003 112.193 56.7286 114.89 58.9045C117.588 61.0803 119.727 63.6637 121.186 66.5069C122.645 69.3501 123.395 72.3974 123.393 75.4745Z" fill="#EE2A2E"/>
<path d="M39.832 167.964C37.2811 168.197 38.4244 168.185 35.6652 168.214C35.3555 165.087 36.6058 166.438 35.6187 164.488C36.9398 162.536 35.7437 174.509 35.6038 163.296C35.5629 160.017 35.5629 160.018 35.4551 151.374C35.5383 147.349 34.9137 145.865 36.1962 146.001C38.6591 145.56 42.111 146.481 44.4462 147.268C46.7814 148.055 48.786 149.409 50.2066 151.158C51.6271 152.908 52.3998 154.974 52.427 157.096C52.4456 158.505 52.1344 159.905 51.5113 161.214C50.8882 162.524 49.9654 163.717 48.7957 164.726C47.6259 165.736 46.2322 166.541 44.6941 167.097C43.1561 167.652 41.5038 167.947 39.832 167.964Z" fill="#EE2A2E"/>
<path d="M190.792 60.1567C190.792 60.1567 188.147 36.5333 161.629 40.5508L190.792 60.1567Z" fill="#030F4B"/>
<path d="M190.497 59.9807C190.497 59.9807 165.986 54.6205 161.608 79.0451L190.497 59.9807Z" fill="#030F4B"/>
<path d="M219.536 40.4175C219.536 40.4175 217.144 63.5254 190.647 59.4819L219.536 40.4175Z" fill="#00599B"/>
<path d="M190.497 59.8535C190.497 59.8535 188.105 82.9615 161.608 78.918L190.497 59.8535Z" fill="#00599B"/>
<path d="M77.5849 208.93H132.412V255.772H77.5849V208.93Z" fill="#00599B"/>
<path d="M132.42 213.681C132.42 213.681 130.149 234.017 104.991 230.459L132.42 213.681Z" fill="#EE2A2E"/>
<path d="M132.42 213.681C132.42 213.681 109.147 208.964 104.999 230.459L132.42 213.681Z" fill="#030F4B"/>
<path d="M77.5692 213.681C77.5692 213.681 79.8081 234.017 104.999 230.479L77.5692 213.681Z" fill="#EE2A2E"/>
<path d="M77.5696 213.681C77.5696 213.681 100.842 208.964 104.991 230.459L77.5696 213.681Z" fill="#030F4B"/>
<path d="M132.42 232.852C132.42 232.852 130.149 253.187 104.991 249.629L132.42 232.852Z" fill="#EE2A2E"/>
<path d="M132.42 232.852C132.42 232.852 109.147 228.134 104.999 249.629L132.42 232.852Z" fill="#030F4B"/>
<path d="M77.5692 232.852C77.5692 232.852 79.8402 253.187 104.999 249.629L77.5692 232.852Z" fill="#EE2A2E"/>
<path d="M77.5696 232.852C77.5696 232.852 100.842 228.134 104.991 249.629L77.5696 232.852Z" fill="#030F4B"/>
<path d="M103.683 208.93H106.307V255.772H103.683V208.93Z" fill="#030F4B"/>
<path d="M14.6519 257.259L14.6519 208.93H52.5634V257.259H14.6519Z" fill="#0B60E0"/>
<path d="M259.876 61.7124L255.885 67.9698L248.575 71.3856L255.885 74.8014L259.876 81.044L263.867 74.8014L271.16 71.3856L263.867 67.9698L259.876 61.7124Z" fill="#FFF9DF"/>
<path d="M52.5635 257.259V207.443L22.7182 257.259H52.5635Z" fill="#EE2A2E"/>
<path d="M94.1433 181.721C93.8318 184.514 94.4665 187.327 95.96 189.774C97.4536 192.221 99.7327 194.181 102.484 195.385C105.235 196.589 108.324 196.978 111.325 196.498C114.326 196.019 117.092 194.694 119.243 192.706C121.394 190.718 122.824 188.165 123.337 185.398C123.849 182.63 123.419 179.785 122.106 177.251C120.792 174.718 118.66 172.623 116.002 171.252C113.343 169.882 110.29 169.304 107.261 169.598C103.898 169.927 100.76 171.31 98.3717 173.517C95.9836 175.724 94.4908 178.62 94.1433 181.721Z" fill="#EE2A2E"/>
<rect width="165.806" height="46.9447" transform="matrix(-0.00369615 0.999993 -0.999995 -0.00311904 1417.81 0.146484)" fill="#056BB7" fill-opacity="0.65"/>
<path d="M1203.52 40.5286C1203.52 45.0132 1205.23 49.3967 1208.43 53.125C1211.64 56.8533 1216.19 59.7589 1221.51 61.4744C1226.83 63.19 1232.69 63.6386 1238.34 62.7633C1244 61.8881 1249.19 59.7284 1253.26 56.5573C1257.34 53.3862 1260.11 49.3461 1261.24 44.9477C1262.36 40.5493 1261.78 35.9902 1259.58 31.8467C1257.38 27.7032 1253.64 24.1614 1248.85 21.6691C1244.06 19.1768 1238.43 17.8458 1232.67 17.8445C1228.84 17.8427 1225.05 18.4283 1221.51 19.5677C1217.97 20.707 1214.76 22.3779 1212.05 24.4846C1209.34 26.5914 1207.2 29.0927 1205.73 31.8457C1204.27 34.5986 1203.52 37.5492 1203.52 40.5286Z" fill="#00599B"/>
<path d="M1469 165.806H1372.68V208.93H1469V165.806Z" fill="#FFAE2D"/>
<rect x="1176" y="40.1501" width="278.431" height="43.1244" fill="#030F4B"/>
<path d="M1373.29 165.515V112.272H1257.75V165.515H1373.29Z" fill="#00599B"/>
<path d="M1290.93 40.1501H1232.66V83.2745H1290.93V40.1501Z" fill="#FFAE2D"/>
<path d="M1233.38 79.8748C1233.38 79.8748 1258.01 85.053 1262.2 60.597L1233.38 79.8748Z" fill="#00599B"/>
<path d="M1262.6 59.4785C1262.6 59.4785 1287.24 64.6567 1291.43 40.2008L1262.6 59.4785Z" fill="#00599B"/>
<path d="M1286.86 112.513L1286.61 112.272L1257.75 138.785L1286.61 165.289L1286.75 165.157L1286.86 112.513Z" fill="#FFAE2D"/>
<path d="M1290.93 165.056L1291.2 165.289L1320.05 138.785L1291.2 112.272L1291.04 112.412L1290.93 165.056Z" fill="#CBCBBF"/>
<path d="M1232.66 40.6489C1232.66 40.6489 1257.25 35.2887 1261.65 59.7133L1232.66 40.6489Z" fill="#030F4B"/>
<path d="M1233.17 80.2319C1233.17 80.2319 1235.82 56.6085 1262.43 60.626L1233.17 80.2319Z" fill="#030F4B"/>
<path d="M1329.13 75.4745C1328.57 80.1742 1328.57 78.0699 1328.57 83.1483C1337.07 83.6464 1333.36 81.3765 1338.69 83.1483C1343.95 80.6723 1311.48 83.1483 1341.93 83.1483C1350.83 83.1483 1350.83 83.1483 1374.3 83.1483C1385.23 82.9029 1389.27 84.0181 1388.87 81.6612C1389.99 77.1187 1387.39 70.7873 1385.19 66.508C1382.98 62.2286 1379.25 58.5707 1374.46 55.9966C1369.67 53.4226 1364.04 52.048 1358.28 52.0466C1354.45 52.0448 1350.66 52.6496 1347.12 53.8263C1343.58 55.003 1340.37 56.7286 1337.66 58.9045C1334.95 61.0803 1332.81 63.6637 1331.34 66.5069C1329.88 69.3501 1329.13 72.3974 1329.13 75.4745Z" fill="#EE2A2E"/>
<path d="M1412.98 167.964C1415.54 168.197 1414.39 168.185 1417.16 168.214C1417.47 165.087 1416.21 166.438 1417.2 164.488C1415.88 162.536 1417.08 174.509 1417.22 163.296C1417.26 160.017 1417.26 160.018 1417.37 151.374C1417.29 147.349 1417.91 145.865 1416.63 146.001C1414.15 145.561 1410.69 146.481 1408.35 147.268C1406 148.055 1403.99 149.409 1402.57 151.158C1401.14 152.908 1400.37 154.974 1400.34 157.096C1400.32 158.505 1400.63 159.905 1401.26 161.214C1401.88 162.524 1402.81 163.717 1403.98 164.726C1405.16 165.736 1406.55 166.541 1408.1 167.097C1409.64 167.652 1411.3 167.947 1412.98 167.964Z" fill="#EE2A2E"/>
<path d="M1261.5 60.1567C1261.5 60.1567 1264.15 36.5333 1290.76 40.5508L1261.5 60.1567Z" fill="#030F4B"/>
<path d="M1261.8 59.9807C1261.8 59.9807 1286.39 54.6205 1290.78 79.0451L1261.8 59.9807Z" fill="#030F4B"/>
<path d="M1232.66 40.4175C1232.66 40.4175 1235.06 63.5254 1261.65 59.4819L1232.66 40.4175Z" fill="#00599B"/>
<path d="M1261.8 59.8535C1261.8 59.8535 1264.2 82.9615 1290.78 78.918L1261.8 59.8535Z" fill="#00599B"/>
<path d="M1375.09 208.93H1320.08V255.772H1375.09V208.93Z" fill="#00599B"/>
<path d="M1320.07 213.681C1320.07 213.681 1322.35 234.017 1347.6 230.459L1320.07 213.681Z" fill="#EE2A2E"/>
<path d="M1320.07 213.681C1320.07 213.681 1343.42 208.964 1347.59 230.459L1320.07 213.681Z" fill="#030F4B"/>
<path d="M1375.11 213.681C1375.11 213.681 1372.86 234.017 1347.59 230.479L1375.11 213.681Z" fill="#EE2A2E"/>
<path d="M1375.11 213.681C1375.11 213.681 1351.76 208.964 1347.59 230.459L1375.11 213.681Z" fill="#030F4B"/>
<path d="M1320.07 232.852C1320.07 232.852 1322.35 253.187 1347.6 249.629L1320.07 232.852Z" fill="#EE2A2E"/>
<path d="M1320.07 232.852C1320.07 232.852 1343.42 228.134 1347.59 249.629L1320.07 232.852Z" fill="#030F4B"/>
<path d="M1375.11 232.852C1375.11 232.852 1372.83 253.187 1347.59 249.629L1375.11 232.852Z" fill="#EE2A2E"/>
<path d="M1375.11 232.852C1375.11 232.852 1351.76 228.134 1347.59 249.629L1375.11 232.852Z" fill="#030F4B"/>
<path d="M1348.91 208.93H1346.27V255.772H1348.91V208.93Z" fill="#030F4B"/>
<path d="M1438.24 257.259V208.93H1400.2V257.259H1438.24Z" fill="#0B60E0"/>
<path d="M1192.18 61.7124L1196.18 67.9698L1203.52 71.3856L1196.18 74.8014L1192.18 81.044L1188.17 74.8014L1180.86 71.3856L1188.17 67.9698L1192.18 61.7124Z" fill="#FFF9DF"/>
<path d="M1400.2 257.259V207.443L1430.15 257.259H1400.2Z" fill="#EE2A2E"/>
<path d="M1358.48 181.721C1358.79 184.514 1358.16 187.327 1356.66 189.774C1355.16 192.221 1352.87 194.181 1350.11 195.385C1347.35 196.589 1344.25 196.978 1341.24 196.498C1338.23 196.019 1335.45 194.694 1333.29 192.706C1331.14 190.718 1329.7 188.165 1329.19 185.398C1328.67 182.63 1329.1 179.785 1330.42 177.251C1331.74 174.718 1333.88 172.623 1336.55 171.252C1339.21 169.882 1342.28 169.304 1345.32 169.598C1348.69 169.927 1351.84 171.31 1354.24 173.517C1356.63 175.724 1358.13 178.62 1358.48 181.721Z" fill="#EE2A2E"/>
<path d="M441.701 84.872V88.94H431.225V95.384H439.253V99.38H431.225V110H426.185V84.872H441.701ZM454.131 110.324C452.211 110.324 450.483 109.904 448.947 109.064C447.411 108.2 446.199 106.988 445.311 105.428C444.447 103.868 444.015 102.068 444.015 100.028C444.015 97.988 444.459 96.188 445.347 94.628C446.259 93.068 447.495 91.868 449.055 91.028C450.615 90.164 452.355 89.732 454.275 89.732C456.195 89.732 457.935 90.164 459.495 91.028C461.055 91.868 462.279 93.068 463.167 94.628C464.079 96.188 464.535 97.988 464.535 100.028C464.535 102.068 464.067 103.868 463.131 105.428C462.219 106.988 460.971 108.2 459.387 109.064C457.827 109.904 456.075 110.324 454.131 110.324ZM454.131 105.932C455.043 105.932 455.895 105.716 456.687 105.284C457.503 104.828 458.151 104.156 458.631 103.268C459.111 102.38 459.351 101.3 459.351 100.028C459.351 98.132 458.847 96.68 457.839 95.672C456.855 94.64 455.643 94.124 454.203 94.124C452.763 94.124 451.551 94.64 450.567 95.672C449.607 96.68 449.127 98.132 449.127 100.028C449.127 101.924 449.595 103.388 450.531 104.42C451.491 105.428 452.691 105.932 454.131 105.932ZM473.272 93.152C473.92 92.096 474.76 91.268 475.792 90.668C476.848 90.068 478.048 89.768 479.392 89.768V95.06H478.06C476.476 95.06 475.276 95.432 474.46 96.176C473.668 96.92 473.272 98.216 473.272 100.064V110H468.232V90.056H473.272V93.152ZM507.555 89.768C510.003 89.768 511.971 90.524 513.459 92.036C514.971 93.524 515.727 95.612 515.727 98.3V110H510.687V98.984C510.687 97.424 510.291 96.236 509.499 95.42C508.707 94.58 507.627 94.16 506.259 94.16C504.891 94.16 503.799 94.58 502.983 95.42C502.191 96.236 501.795 97.424 501.795 98.984V110H496.755V98.984C496.755 97.424 496.359 96.236 495.567 95.42C494.775 94.58 493.695 94.16 492.327 94.16C490.935 94.16 489.831 94.58 489.015 95.42C488.223 96.236 487.827 97.424 487.827 98.984V110H482.787V90.056H487.827V92.468C488.475 91.628 489.303 90.968 490.311 90.488C491.343 90.008 492.471 89.768 493.695 89.768C495.255 89.768 496.647 90.104 497.871 90.776C499.095 91.424 500.043 92.36 500.715 93.584C501.363 92.432 502.299 91.508 503.523 90.812C504.771 90.116 506.115 89.768 507.555 89.768ZM547.412 92.648C547.412 93.992 547.088 95.252 546.44 96.428C545.816 97.604 544.82 98.552 543.452 99.272C542.108 99.992 540.404 100.352 538.34 100.352H534.128V110H529.088V84.872H538.34C540.284 84.872 541.94 85.208 543.308 85.88C544.676 86.552 545.696 87.476 546.368 88.652C547.064 89.828 547.412 91.16 547.412 92.648ZM538.124 96.284C539.516 96.284 540.548 95.972 541.22 95.348C541.892 94.7 542.228 93.8 542.228 92.648C542.228 90.2 540.86 88.976 538.124 88.976H534.128V96.284H538.124ZM569.53 99.596C569.53 100.316 569.482 100.964 569.386 101.54H554.806C554.926 102.98 555.43 104.108 556.318 104.924C557.206 105.74 558.298 106.148 559.594 106.148C561.466 106.148 562.798 105.344 563.59 103.736H569.026C568.45 105.656 567.346 107.24 565.714 108.488C564.082 109.712 562.078 110.324 559.702 110.324C557.782 110.324 556.054 109.904 554.518 109.064C553.006 108.2 551.818 106.988 550.954 105.428C550.114 103.868 549.694 102.068 549.694 100.028C549.694 97.964 550.114 96.152 550.954 94.592C551.794 93.032 552.97 91.832 554.482 90.992C555.994 90.152 557.734 89.732 559.702 89.732C561.598 89.732 563.29 90.14 564.778 90.956C566.29 91.772 567.454 92.936 568.27 94.448C569.11 95.936 569.53 97.652 569.53 99.596ZM564.31 98.156C564.286 96.86 563.818 95.828 562.906 95.06C561.994 94.268 560.878 93.872 559.558 93.872C558.31 93.872 557.254 94.256 556.39 95.024C555.55 95.768 555.034 96.812 554.842 98.156H564.31ZM584.261 89.768C586.637 89.768 588.557 90.524 590.021 92.036C591.485 93.524 592.217 95.612 592.217 98.3V110H587.177V98.984C587.177 97.4 586.781 96.188 585.989 95.348C585.197 94.484 584.117 94.052 582.749 94.052C581.357 94.052 580.253 94.484 579.437 95.348C578.645 96.188 578.249 97.4 578.249 98.984V110H573.209V90.056H578.249V92.54C578.921 91.676 579.773 91.004 580.805 90.524C581.861 90.02 583.013 89.768 584.261 89.768ZM595.713 99.956C595.713 97.94 596.109 96.152 596.901 94.592C597.717 93.032 598.821 91.832 600.213 90.992C601.605 90.152 603.153 89.732 604.857 89.732C606.153 89.732 607.389 90.02 608.565 90.596C609.741 91.148 610.677 91.892 611.373 92.828V83.36H616.485V110H611.373V107.048C610.749 108.032 609.873 108.824 608.745 109.424C607.617 110.024 606.309 110.324 604.821 110.324C603.141 110.324 601.605 109.892 600.213 109.028C598.821 108.164 597.717 106.952 596.901 105.392C596.109 103.808 595.713 101.996 595.713 99.956ZM611.409 100.028C611.409 98.804 611.169 97.76 610.689 96.896C610.209 96.008 609.561 95.336 608.745 94.88C607.929 94.4 607.053 94.16 606.117 94.16C605.181 94.16 604.317 94.388 603.525 94.844C602.733 95.3 602.085 95.972 601.581 96.86C601.101 97.724 600.861 98.756 600.861 99.956C600.861 101.156 601.101 102.212 601.581 103.124C602.085 104.012 602.733 104.696 603.525 105.176C604.341 105.656 605.205 105.896 606.117 105.896C607.053 105.896 607.929 105.668 608.745 105.212C609.561 104.732 610.209 104.06 610.689 103.196C611.169 102.308 611.409 101.252 611.409 100.028ZM620.112 99.956C620.112 97.94 620.508 96.152 621.3 94.592C622.116 93.032 623.208 91.832 624.576 90.992C625.968 90.152 627.516 89.732 629.22 89.732C630.708 89.732 632.004 90.032 633.108 90.632C634.236 91.232 635.136 91.988 635.808 92.9V90.056H640.884V110H635.808V107.084C635.16 108.02 634.26 108.8 633.108 109.424C631.98 110.024 630.672 110.324 629.184 110.324C627.504 110.324 625.968 109.892 624.576 109.028C623.208 108.164 622.116 106.952 621.3 105.392C620.508 103.808 620.112 101.996 620.112 99.956ZM635.808 100.028C635.808 98.804 635.568 97.76 635.088 96.896C634.608 96.008 633.96 95.336 633.144 94.88C632.328 94.4 631.452 94.16 630.516 94.16C629.58 94.16 628.716 94.388 627.924 94.844C627.132 95.3 626.484 95.972 625.98 96.86C625.5 97.724 625.26 98.756 625.26 99.956C625.26 101.156 625.5 102.212 625.98 103.124C626.484 104.012 627.132 104.696 627.924 105.176C628.74 105.656 629.604 105.896 630.516 105.896C631.452 105.896 632.328 105.668 633.144 105.212C633.96 104.732 634.608 104.06 635.088 103.196C635.568 102.308 635.808 101.252 635.808 100.028ZM654.95 94.196H651.458V110H646.346V94.196H644.078V90.056H646.346V89.048C646.346 86.6 647.042 84.8 648.434 83.648C649.826 82.496 651.926 81.956 654.734 82.028V86.276C653.51 86.252 652.658 86.456 652.178 86.888C651.698 87.32 651.458 88.1 651.458 89.228V90.056H654.95V94.196ZM664.084 94.196V103.844C664.084 104.516 664.24 105.008 664.552 105.32C664.888 105.608 665.44 105.752 666.208 105.752H668.548V110H665.38C661.132 110 659.008 107.936 659.008 103.808V94.196H656.632V90.056H659.008V85.124H664.084V90.056H668.548V94.196H664.084ZM670.877 99.956C670.877 97.94 671.273 96.152 672.065 94.592C672.881 93.032 673.973 91.832 675.341 90.992C676.733 90.152 678.281 89.732 679.985 89.732C681.473 89.732 682.769 90.032 683.873 90.632C685.001 91.232 685.901 91.988 686.573 92.9V90.056H691.649V110H686.573V107.084C685.925 108.02 685.025 108.8 683.873 109.424C682.745 110.024 681.437 110.324 679.949 110.324C678.269 110.324 676.733 109.892 675.341 109.028C673.973 108.164 672.881 106.952 672.065 105.392C671.273 103.808 670.877 101.996 670.877 99.956ZM686.573 100.028C686.573 98.804 686.333 97.76 685.853 96.896C685.373 96.008 684.725 95.336 683.909 94.88C683.093 94.4 682.217 94.16 681.281 94.16C680.345 94.16 679.481 94.388 678.689 94.844C677.897 95.3 677.249 95.972 676.745 96.86C676.265 97.724 676.025 98.756 676.025 99.956C676.025 101.156 676.265 102.212 676.745 103.124C677.249 104.012 677.897 104.696 678.689 105.176C679.505 105.656 680.369 105.896 681.281 105.896C682.217 105.896 683.093 105.668 683.909 105.212C684.725 104.732 685.373 104.06 685.853 103.196C686.333 102.308 686.573 101.252 686.573 100.028ZM701.612 93.152C702.26 92.096 703.1 91.268 704.132 90.668C705.188 90.068 706.388 89.768 707.732 89.768V95.06H706.4C704.816 95.06 703.616 95.432 702.8 96.176C702.008 96.92 701.612 98.216 701.612 100.064V110H696.572V90.056H701.612V93.152ZM709.831 99.956C709.831 97.94 710.227 96.152 711.019 94.592C711.835 93.032 712.927 91.832 714.295 90.992C715.687 90.152 717.235 89.732 718.939 89.732C720.427 89.732 721.723 90.032 722.827 90.632C723.955 91.232 724.855 91.988 725.527 92.9V90.056H730.603V110H725.527V107.084C724.879 108.02 723.979 108.8 722.827 109.424C721.699 110.024 720.391 110.324 718.903 110.324C717.223 110.324 715.687 109.892 714.295 109.028C712.927 108.164 711.835 106.952 711.019 105.392C710.227 103.808 709.831 101.996 709.831 99.956ZM725.527 100.028C725.527 98.804 725.287 97.76 724.807 96.896C724.327 96.008 723.679 95.336 722.863 94.88C722.047 94.4 721.171 94.16 720.235 94.16C719.299 94.16 718.435 94.388 717.643 94.844C716.851 95.3 716.203 95.972 715.699 96.86C715.219 97.724 714.979 98.756 714.979 99.956C714.979 101.156 715.219 102.212 715.699 103.124C716.203 104.012 716.851 104.696 717.643 105.176C718.459 105.656 719.323 105.896 720.235 105.896C721.171 105.896 722.047 105.668 722.863 105.212C723.679 104.732 724.327 104.06 724.807 103.196C725.287 102.308 725.527 101.252 725.527 100.028ZM746.577 89.768C748.953 89.768 750.873 90.524 752.337 92.036C753.801 93.524 754.533 95.612 754.533 98.3V110H749.493V98.984C749.493 97.4 749.097 96.188 748.305 95.348C747.513 94.484 746.433 94.052 745.065 94.052C743.673 94.052 742.569 94.484 741.753 95.348C740.961 96.188 740.565 97.4 740.565 98.984V110H735.525V90.056H740.565V92.54C741.237 91.676 742.089 91.004 743.121 90.524C744.177 90.02 745.329 89.768 746.577 89.768ZM786.228 92.648C786.228 93.992 785.904 95.252 785.256 96.428C784.632 97.604 783.636 98.552 782.268 99.272C780.924 99.992 779.22 100.352 777.156 100.352H772.944V110H767.904V84.872H777.156C779.1 84.872 780.756 85.208 782.124 85.88C783.492 86.552 784.512 87.476 785.184 88.652C785.88 89.828 786.228 91.16 786.228 92.648ZM776.94 96.284C778.332 96.284 779.364 95.972 780.036 95.348C780.708 94.7 781.044 93.8 781.044 92.648C781.044 90.2 779.676 88.976 776.94 88.976H772.944V96.284H776.94ZM788.51 99.956C788.51 97.94 788.906 96.152 789.698 94.592C790.514 93.032 791.606 91.832 792.974 90.992C794.366 90.152 795.914 89.732 797.618 89.732C799.106 89.732 800.402 90.032 801.506 90.632C802.634 91.232 803.534 91.988 804.206 92.9V90.056H809.282V110H804.206V107.084C803.558 108.02 802.658 108.8 801.506 109.424C800.378 110.024 799.07 110.324 797.582 110.324C795.902 110.324 794.366 109.892 792.974 109.028C791.606 108.164 790.514 106.952 789.698 105.392C788.906 103.808 788.51 101.996 788.51 99.956ZM804.206 100.028C804.206 98.804 803.966 97.76 803.486 96.896C803.006 96.008 802.358 95.336 801.542 94.88C800.726 94.4 799.85 94.16 798.914 94.16C797.978 94.16 797.114 94.388 796.322 94.844C795.53 95.3 794.882 95.972 794.378 96.86C793.898 97.724 793.658 98.756 793.658 99.956C793.658 101.156 793.898 102.212 794.378 103.124C794.882 104.012 795.53 104.696 796.322 105.176C797.138 105.656 798.002 105.896 798.914 105.896C799.85 105.896 800.726 105.668 801.542 105.212C802.358 104.732 803.006 104.06 803.486 103.196C803.966 102.308 804.206 101.252 804.206 100.028ZM826.013 110L819.245 101.504V110H814.205V83.36H819.245V98.516L825.941 90.056H832.493L823.709 100.064L832.565 110H826.013ZM853.768 99.596C853.768 100.316 853.72 100.964 853.624 101.54H839.044C839.164 102.98 839.668 104.108 840.556 104.924C841.444 105.74 842.536 106.148 843.832 106.148C845.704 106.148 847.036 105.344 847.828 103.736H853.264C852.688 105.656 851.584 107.24 849.952 108.488C848.32 109.712 846.316 110.324 843.94 110.324C842.02 110.324 840.292 109.904 838.756 109.064C837.244 108.2 836.056 106.988 835.192 105.428C834.352 103.868 833.932 102.068 833.932 100.028C833.932 97.964 834.352 96.152 835.192 94.592C836.032 93.032 837.208 91.832 838.72 90.992C840.232 90.152 841.972 89.732 843.94 89.732C845.836 89.732 847.528 90.14 849.016 90.956C850.528 91.772 851.692 92.936 852.508 94.448C853.348 95.936 853.768 97.652 853.768 99.596ZM848.548 98.156C848.524 96.86 848.056 95.828 847.144 95.06C846.232 94.268 845.116 93.872 843.796 93.872C842.548 93.872 841.492 94.256 840.628 95.024C839.788 95.768 839.272 96.812 839.08 98.156H848.548ZM863.315 94.196V103.844C863.315 104.516 863.471 105.008 863.783 105.32C864.119 105.608 864.671 105.752 865.439 105.752H867.779V110H864.611C860.363 110 858.239 107.936 858.239 103.808V94.196H855.863V90.056H858.239V85.124H863.315V90.056H867.779V94.196H863.315ZM913.57 84.872L906.55 110H900.61L895.894 92.108L890.962 110L885.058 110.036L878.29 84.872H883.69L888.118 104.384L893.23 84.872H898.846L903.67 104.276L908.134 84.872H913.57ZM919.417 87.68C918.529 87.68 917.785 87.404 917.185 86.852C916.609 86.276 916.321 85.568 916.321 84.728C916.321 83.888 916.609 83.192 917.185 82.64C917.785 82.064 918.529 81.776 919.417 81.776C920.305 81.776 921.037 82.064 921.613 82.64C922.213 83.192 922.513 83.888 922.513 84.728C922.513 85.568 922.213 86.276 921.613 86.852C921.037 87.404 920.305 87.68 919.417 87.68ZM921.901 90.056V110H916.861V90.056H921.901ZM934.512 110.324C932.88 110.324 931.416 110.036 930.12 109.46C928.824 108.86 927.792 108.056 927.024 107.048C926.28 106.04 925.872 104.924 925.8 103.7H930.876C930.972 104.468 931.344 105.104 931.992 105.608C932.664 106.112 933.492 106.364 934.476 106.364C935.436 106.364 936.18 106.172 936.708 105.788C937.26 105.404 937.536 104.912 937.536 104.312C937.536 103.664 937.2 103.184 936.528 102.872C935.88 102.536 934.836 102.176 933.396 101.792C931.908 101.432 930.684 101.06 929.724 100.676C928.788 100.292 927.972 99.704 927.276 98.912C926.604 98.12 926.268 97.052 926.268 95.708C926.268 94.604 926.58 93.596 927.204 92.684C927.852 91.772 928.764 91.052 929.94 90.524C931.14 89.996 932.544 89.732 934.152 89.732C936.528 89.732 938.424 90.332 939.84 91.532C941.256 92.708 942.036 94.304 942.18 96.32H937.356C937.284 95.528 936.948 94.904 936.348 94.448C935.772 93.968 934.992 93.728 934.008 93.728C933.096 93.728 932.388 93.896 931.884 94.232C931.404 94.568 931.164 95.036 931.164 95.636C931.164 96.308 931.5 96.824 932.172 97.184C932.844 97.52 933.888 97.868 935.304 98.228C936.744 98.588 937.932 98.96 938.868 99.344C939.804 99.728 940.608 100.328 941.28 101.144C941.976 101.936 942.336 102.992 942.36 104.312C942.36 105.464 942.036 106.496 941.388 107.408C940.764 108.32 939.852 109.04 938.652 109.568C937.476 110.072 936.096 110.324 934.512 110.324ZM945.202 99.956C945.202 97.94 945.598 96.152 946.39 94.592C947.206 93.032 948.298 91.832 949.666 90.992C951.058 90.152 952.606 89.732 954.31 89.732C955.798 89.732 957.094 90.032 958.198 90.632C959.326 91.232 960.226 91.988 960.898 92.9V90.056H965.974V110H960.898V107.084C960.25 108.02 959.35 108.8 958.198 109.424C957.07 110.024 955.762 110.324 954.274 110.324C952.594 110.324 951.058 109.892 949.666 109.028C948.298 108.164 947.206 106.952 946.39 105.392C945.598 103.808 945.202 101.996 945.202 99.956ZM960.898 100.028C960.898 98.804 960.658 97.76 960.178 96.896C959.698 96.008 959.05 95.336 958.234 94.88C957.418 94.4 956.542 94.16 955.606 94.16C954.67 94.16 953.806 94.388 953.014 94.844C952.222 95.3 951.574 95.972 951.07 96.86C950.59 97.724 950.35 98.756 950.35 99.956C950.35 101.156 950.59 102.212 951.07 103.124C951.574 104.012 952.222 104.696 953.014 105.176C953.83 105.656 954.694 105.896 955.606 105.896C956.542 105.896 957.418 105.668 958.234 105.212C959.05 104.732 959.698 104.06 960.178 103.196C960.658 102.308 960.898 101.252 960.898 100.028ZM976.764 94.196V103.844C976.764 104.516 976.92 105.008 977.232 105.32C977.568 105.608 978.12 105.752 978.888 105.752H981.228V110H978.06C973.812 110 971.688 107.936 971.688 103.808V94.196H969.312V90.056H971.688V85.124H976.764V90.056H981.228V94.196H976.764ZM983.557 99.956C983.557 97.94 983.953 96.152 984.745 94.592C985.561 93.032 986.653 91.832 988.021 90.992C989.413 90.152 990.961 89.732 992.665 89.732C994.153 89.732 995.449 90.032 996.553 90.632C997.681 91.232 998.581 91.988 999.253 92.9V90.056H1004.33V110H999.253V107.084C998.605 108.02 997.705 108.8 996.553 109.424C995.425 110.024 994.117 110.324 992.629 110.324C990.949 110.324 989.413 109.892 988.021 109.028C986.653 108.164 985.561 106.952 984.745 105.392C983.953 103.808 983.557 101.996 983.557 99.956ZM999.253 100.028C999.253 98.804 999.013 97.76 998.533 96.896C998.053 96.008 997.405 95.336 996.589 94.88C995.773 94.4 994.897 94.16 993.961 94.16C993.025 94.16 992.161 94.388 991.369 94.844C990.577 95.3 989.929 95.972 989.425 96.86C988.945 97.724 988.705 98.756 988.705 99.956C988.705 101.156 988.945 102.212 989.425 103.124C989.929 104.012 990.577 104.696 991.369 105.176C992.185 105.656 993.049 105.896 993.961 105.896C994.897 105.896 995.773 105.668 996.589 105.212C997.405 104.732 998.053 104.06 998.533 103.196C999.013 102.308 999.253 101.252 999.253 100.028ZM622.795 146.59V151.675H614.425V178H608.125V151.675H599.755V146.59H622.795ZM633.692 156.94C634.502 155.62 635.552 154.585 636.842 153.835C638.162 153.085 639.662 152.71 641.342 152.71V159.325H639.677C637.697 159.325 636.197 159.79 635.177 160.72C634.187 161.65 633.692 163.27 633.692 165.58V178H627.392V153.07H633.692V156.94ZM643.965 165.445C643.965 162.925 644.46 160.69 645.45 158.74C646.47 156.79 647.835 155.29 649.545 154.24C651.285 153.19 653.22 152.665 655.35 152.665C657.21 152.665 658.83 153.04 660.21 153.79C661.62 154.54 662.745 155.485 663.585 156.625V153.07H669.93V178H663.585V174.355C662.775 175.525 661.65 176.5 660.21 177.28C658.8 178.03 657.165 178.405 655.305 178.405C653.205 178.405 651.285 177.865 649.545 176.785C647.835 175.705 646.47 174.19 645.45 172.24C644.46 170.26 643.965 167.995 643.965 165.445ZM663.585 165.535C663.585 164.005 663.285 162.7 662.685 161.62C662.085 160.51 661.275 159.67 660.255 159.1C659.235 158.5 658.14 158.2 656.97 158.2C655.8 158.2 654.72 158.485 653.73 159.055C652.74 159.625 651.93 160.465 651.3 161.575C650.7 162.655 650.4 163.945 650.4 165.445C650.4 166.945 650.7 168.265 651.3 169.405C651.93 170.515 652.74 171.37 653.73 171.97C654.75 172.57 655.83 172.87 656.97 172.87C658.14 172.87 659.235 172.585 660.255 172.015C661.275 171.415 662.085 170.575 662.685 169.495C663.285 168.385 663.585 167.065 663.585 165.535ZM686.479 172.195L692.779 153.07H699.484L690.259 178H682.609L673.429 153.07H680.179L686.479 172.195ZM726.197 164.995C726.197 165.895 726.137 166.705 726.017 167.425H707.792C707.942 169.225 708.572 170.635 709.682 171.655C710.792 172.675 712.157 173.185 713.777 173.185C716.117 173.185 717.782 172.18 718.772 170.17H725.567C724.847 172.57 723.467 174.55 721.427 176.11C719.387 177.64 716.882 178.405 713.912 178.405C711.512 178.405 709.352 177.88 707.432 176.83C705.542 175.75 704.057 174.235 702.977 172.285C701.927 170.335 701.402 168.085 701.402 165.535C701.402 162.955 701.927 160.69 702.977 158.74C704.027 156.79 705.497 155.29 707.387 154.24C709.277 153.19 711.452 152.665 713.912 152.665C716.282 152.665 718.397 153.175 720.257 154.195C722.147 155.215 723.602 156.67 724.622 158.56C725.672 160.42 726.197 162.565 726.197 164.995ZM719.672 163.195C719.642 161.575 719.057 160.285 717.917 159.325C716.777 158.335 715.382 157.84 713.732 157.84C712.172 157.84 710.852 158.32 709.772 159.28C708.722 160.21 708.077 161.515 707.837 163.195H719.672ZM737.095 144.7V178H730.795V144.7H737.095Z" fill="black"/>
<path d="M746.515 150.1C745.405 150.1 744.475 149.755 743.725 149.065C743.005 148.345 742.645 147.46 742.645 146.41C742.645 145.36 743.005 144.49 743.725 143.8C744.475 143.08 745.405 142.72 746.515 142.72C747.625 142.72 748.54 143.08 749.26 143.8C750.01 144.49 750.385 145.36 750.385 146.41C750.385 147.46 750.01 148.345 749.26 149.065C748.54 149.755 747.625 150.1 746.515 150.1ZM749.62 153.07V178H743.32V153.07H749.62ZM769.659 152.71C772.629 152.71 775.029 153.655 776.859 155.545C778.689 157.405 779.604 160.015 779.604 163.375V178H773.304V164.23C773.304 162.25 772.809 160.735 771.819 159.685C770.829 158.605 769.479 158.065 767.769 158.065C766.029 158.065 764.649 158.605 763.629 159.685C762.639 160.735 762.144 162.25 762.144 164.23V178H755.844V153.07H762.144V156.175C762.984 155.095 764.049 154.255 765.339 153.655C766.659 153.025 768.099 152.71 769.659 152.71ZM783.975 165.445C783.975 162.925 784.47 160.69 785.46 158.74C786.48 156.79 787.86 155.29 789.6 154.24C791.34 153.19 793.275 152.665 795.405 152.665C797.025 152.665 798.57 153.025 800.04 153.745C801.51 154.435 802.68 155.365 803.55 156.535V144.7H809.94V178H803.55V174.31C802.77 175.54 801.675 176.53 800.265 177.28C798.855 178.03 797.22 178.405 795.36 178.405C793.26 178.405 791.34 177.865 789.6 176.785C787.86 175.705 786.48 174.19 785.46 172.24C784.47 170.26 783.975 167.995 783.975 165.445ZM803.595 165.535C803.595 164.005 803.295 162.7 802.695 161.62C802.095 160.51 801.285 159.67 800.265 159.1C799.245 158.5 798.15 158.2 796.98 158.2C795.81 158.2 794.73 158.485 793.74 159.055C792.75 159.625 791.94 160.465 791.31 161.575C790.71 162.655 790.41 163.945 790.41 165.445C790.41 166.945 790.71 168.265 791.31 169.405C791.94 170.515 792.75 171.37 793.74 171.97C794.76 172.57 795.84 172.87 796.98 172.87C798.15 172.87 799.245 172.585 800.265 172.015C801.285 171.415 802.095 170.575 802.695 169.495C803.295 168.385 803.595 167.065 803.595 165.535ZM827.163 178.405C824.763 178.405 822.603 177.88 820.683 176.83C818.763 175.75 817.248 174.235 816.138 172.285C815.058 170.335 814.518 168.085 814.518 165.535C814.518 162.985 815.073 160.735 816.183 158.785C817.323 156.835 818.868 155.335 820.818 154.285C822.768 153.205 824.943 152.665 827.343 152.665C829.743 152.665 831.918 153.205 833.868 154.285C835.818 155.335 837.348 156.835 838.458 158.785C839.598 160.735 840.168 162.985 840.168 165.535C840.168 168.085 839.583 170.335 838.413 172.285C837.273 174.235 835.713 175.75 833.733 176.83C831.783 177.88 829.593 178.405 827.163 178.405ZM827.163 172.915C828.303 172.915 829.368 172.645 830.358 172.105C831.378 171.535 832.188 170.695 832.788 169.585C833.388 168.475 833.688 167.125 833.688 165.535C833.688 163.165 833.058 161.35 831.798 160.09C830.568 158.8 829.053 158.155 827.253 158.155C825.453 158.155 823.938 158.8 822.708 160.09C821.508 161.35 820.908 163.165 820.908 165.535C820.908 167.905 821.493 169.735 822.663 171.025C823.863 172.285 825.363 172.915 827.163 172.915Z" fill="#0B60E0"/>
<path d="M488.154 231.126C487.314 231.126 486.558 230.982 485.886 230.694C485.214 230.394 484.686 229.974 484.302 229.434C483.918 228.894 483.726 228.264 483.726 227.544H485.922C485.97 228.084 486.18 228.528 486.552 228.876C486.936 229.224 487.47 229.398 488.154 229.398C488.862 229.398 489.414 229.23 489.81 228.894C490.206 228.546 490.404 228.102 490.404 227.562C490.404 227.142 490.278 226.8 490.026 226.536C489.786 226.272 489.48 226.068 489.108 225.924C488.748 225.78 488.244 225.624 487.596 225.456C486.78 225.24 486.114 225.024 485.598 224.808C485.094 224.58 484.662 224.232 484.302 223.764C483.942 223.296 483.762 222.672 483.762 221.892C483.762 221.172 483.942 220.542 484.302 220.002C484.662 219.462 485.166 219.048 485.814 218.76C486.462 218.472 487.212 218.328 488.064 218.328C489.276 218.328 490.266 218.634 491.034 219.246C491.814 219.846 492.246 220.674 492.33 221.73H490.062C490.026 221.274 489.81 220.884 489.414 220.56C489.018 220.236 488.496 220.074 487.848 220.074C487.26 220.074 486.78 220.224 486.408 220.524C486.036 220.824 485.85 221.256 485.85 221.82C485.85 222.204 485.964 222.522 486.192 222.774C486.432 223.014 486.732 223.206 487.092 223.35C487.452 223.494 487.944 223.65 488.568 223.818C489.396 224.046 490.068 224.274 490.584 224.502C491.112 224.73 491.556 225.084 491.916 225.564C492.288 226.032 492.474 226.662 492.474 227.454C492.474 228.09 492.3 228.69 491.952 229.254C491.616 229.818 491.118 230.274 490.458 230.622C489.81 230.958 489.042 231.126 488.154 231.126ZM495.939 219.768C495.567 219.768 495.255 219.642 495.003 219.39C494.751 219.138 494.625 218.826 494.625 218.454C494.625 218.082 494.751 217.77 495.003 217.518C495.255 217.266 495.567 217.14 495.939 217.14C496.299 217.14 496.605 217.266 496.857 217.518C497.109 217.77 497.235 218.082 497.235 218.454C497.235 218.826 497.109 219.138 496.857 219.39C496.605 219.642 496.299 219.768 495.939 219.768ZM496.947 221.082V231H494.895V221.082H496.947ZM501.693 217.68V231H499.641V217.68H501.693ZM503.703 225.996C503.703 225 503.907 224.118 504.315 223.35C504.735 222.582 505.299 221.988 506.007 221.568C506.727 221.136 507.519 220.92 508.383 220.92C509.163 220.92 509.841 221.076 510.417 221.388C511.005 221.688 511.473 222.066 511.821 222.522V221.082H513.891V231H511.821V229.524C511.473 229.992 510.999 230.382 510.399 230.694C509.799 231.006 509.115 231.162 508.347 231.162C507.495 231.162 506.715 230.946 506.007 230.514C505.299 230.07 504.735 229.458 504.315 228.678C503.907 227.886 503.703 226.992 503.703 225.996ZM511.821 226.032C511.821 225.348 511.677 224.754 511.389 224.25C511.113 223.746 510.747 223.362 510.291 223.098C509.835 222.834 509.343 222.702 508.815 222.702C508.287 222.702 507.795 222.834 507.339 223.098C506.883 223.35 506.511 223.728 506.223 224.232C505.947 224.724 505.809 225.312 505.809 225.996C505.809 226.68 505.947 227.28 506.223 227.796C506.511 228.312 506.883 228.708 507.339 228.984C507.807 229.248 508.299 229.38 508.815 229.38C509.343 229.38 509.835 229.248 510.291 228.984C510.747 228.72 511.113 228.336 511.389 227.832C511.677 227.316 511.821 226.716 511.821 226.032ZM521.716 220.92C522.472 220.92 523.144 221.082 523.732 221.406C524.332 221.73 524.8 222.21 525.136 222.846C525.484 223.482 525.658 224.25 525.658 225.15V231H523.624V225.456C523.624 224.568 523.402 223.89 522.958 223.422C522.514 222.942 521.908 222.702 521.14 222.702C520.372 222.702 519.76 222.942 519.304 223.422C518.86 223.89 518.638 224.568 518.638 225.456V231H516.586V217.68H518.638V222.234C518.986 221.814 519.424 221.49 519.952 221.262C520.492 221.034 521.08 220.92 521.716 220.92ZM532.2 226.05L536.772 231H534L530.328 226.734V231H528.276V217.68H530.328V225.42L533.928 221.082H536.772L532.2 226.05ZM537.559 225.996C537.559 225 537.763 224.118 538.171 223.35C538.591 222.582 539.155 221.988 539.863 221.568C540.583 221.136 541.375 220.92 542.239 220.92C543.019 220.92 543.697 221.076 544.273 221.388C544.861 221.688 545.329 222.066 545.677 222.522V221.082H547.747V231H545.677V229.524C545.329 229.992 544.855 230.382 544.255 230.694C543.655 231.006 542.971 231.162 542.203 231.162C541.351 231.162 540.571 230.946 539.863 230.514C539.155 230.07 538.591 229.458 538.171 228.678C537.763 227.886 537.559 226.992 537.559 225.996ZM545.677 226.032C545.677 225.348 545.533 224.754 545.245 224.25C544.969 223.746 544.603 223.362 544.147 223.098C543.691 222.834 543.199 222.702 542.671 222.702C542.143 222.702 541.651 222.834 541.195 223.098C540.739 223.35 540.367 223.728 540.079 224.232C539.803 224.724 539.665 225.312 539.665 225.996C539.665 226.68 539.803 227.28 540.079 227.796C540.367 228.312 540.739 228.708 541.195 228.984C541.663 229.248 542.155 229.38 542.671 229.38C543.199 229.38 543.691 229.248 544.147 228.984C544.603 228.72 544.969 228.336 545.245 227.832C545.533 227.316 545.677 226.716 545.677 226.032ZM555.446 220.92C556.226 220.92 556.922 221.082 557.534 221.406C558.158 221.73 558.644 222.21 558.992 222.846C559.34 223.482 559.514 224.25 559.514 225.15V231H557.48V225.456C557.48 224.568 557.258 223.89 556.814 223.422C556.37 222.942 555.764 222.702 554.996 222.702C554.228 222.702 553.616 222.942 553.16 223.422C552.716 223.89 552.494 224.568 552.494 225.456V231H550.442V221.082H552.494V222.216C552.83 221.808 553.256 221.49 553.772 221.262C554.3 221.034 554.858 220.92 555.446 220.92ZM567.851 219.768C567.479 219.768 567.167 219.642 566.915 219.39C566.663 219.138 566.537 218.826 566.537 218.454C566.537 218.082 566.663 217.77 566.915 217.518C567.167 217.266 567.479 217.14 567.851 217.14C568.211 217.14 568.517 217.266 568.769 217.518C569.021 217.77 569.147 218.082 569.147 218.454C569.147 218.826 569.021 219.138 568.769 219.39C568.517 219.642 568.211 219.768 567.851 219.768ZM568.859 221.082V231H566.807V221.082H568.859ZM575.153 231.162C574.373 231.162 573.671 231.024 573.047 230.748C572.435 230.46 571.949 230.076 571.589 229.596C571.229 229.104 571.037 228.558 571.013 227.958H573.137C573.173 228.378 573.371 228.732 573.731 229.02C574.103 229.296 574.565 229.434 575.117 229.434C575.693 229.434 576.137 229.326 576.449 229.11C576.773 228.882 576.935 228.594 576.935 228.246C576.935 227.874 576.755 227.598 576.395 227.418C576.047 227.238 575.489 227.04 574.721 226.824C573.977 226.62 573.371 226.422 572.903 226.23C572.435 226.038 572.027 225.744 571.679 225.348C571.343 224.952 571.175 224.43 571.175 223.782C571.175 223.254 571.331 222.774 571.643 222.342C571.955 221.898 572.399 221.55 572.975 221.298C573.563 221.046 574.235 220.92 574.991 220.92C576.119 220.92 577.025 221.208 577.709 221.784C578.405 222.348 578.777 223.122 578.825 224.106H576.773C576.737 223.662 576.557 223.308 576.233 223.044C575.909 222.78 575.471 222.648 574.919 222.648C574.379 222.648 573.965 222.75 573.677 222.954C573.389 223.158 573.245 223.428 573.245 223.764C573.245 224.028 573.341 224.25 573.533 224.43C573.725 224.61 573.959 224.754 574.235 224.862C574.511 224.958 574.919 225.084 575.459 225.24C576.179 225.432 576.767 225.63 577.223 225.834C577.691 226.026 578.093 226.314 578.429 226.698C578.765 227.082 578.939 227.592 578.951 228.228C578.951 228.792 578.795 229.296 578.483 229.74C578.171 230.184 577.727 230.532 577.151 230.784C576.587 231.036 575.921 231.162 575.153 231.162ZM582.212 219.768C581.84 219.768 581.528 219.642 581.276 219.39C581.024 219.138 580.898 218.826 580.898 218.454C580.898 218.082 581.024 217.77 581.276 217.518C581.528 217.266 581.84 217.14 582.212 217.14C582.572 217.14 582.878 217.266 583.13 217.518C583.382 217.77 583.508 218.082 583.508 218.454C583.508 218.826 583.382 219.138 583.13 219.39C582.878 219.642 582.572 219.768 582.212 219.768ZM583.22 221.082V231H581.168V221.082H583.22ZM594.748 222.756H592.912V231H590.842V222.756H589.672V221.082H590.842V220.38C590.842 219.24 591.142 218.412 591.742 217.896C592.354 217.368 593.308 217.104 594.604 217.104V218.814C593.98 218.814 593.542 218.934 593.29 219.174C593.038 219.402 592.912 219.804 592.912 220.38V221.082H594.748V222.756ZM600.869 231.162C599.933 231.162 599.087 230.952 598.331 230.532C597.575 230.1 596.981 229.5 596.549 228.732C596.117 227.952 595.901 227.052 595.901 226.032C595.901 225.024 596.123 224.13 596.567 223.35C597.011 222.57 597.617 221.97 598.385 221.55C599.153 221.13 600.011 220.92 600.959 220.92C601.907 220.92 602.765 221.13 603.533 221.55C604.301 221.97 604.907 222.57 605.351 223.35C605.795 224.13 606.017 225.024 606.017 226.032C606.017 227.04 605.789 227.934 605.333 228.714C604.877 229.494 604.253 230.1 603.461 230.532C602.681 230.952 601.817 231.162 600.869 231.162ZM600.869 229.38C601.397 229.38 601.889 229.254 602.345 229.002C602.813 228.75 603.191 228.372 603.479 227.868C603.767 227.364 603.911 226.752 603.911 226.032C603.911 225.312 603.773 224.706 603.497 224.214C603.221 223.71 602.855 223.332 602.399 223.08C601.943 222.828 601.451 222.702 600.923 222.702C600.395 222.702 599.903 222.828 599.447 223.08C599.003 223.332 598.649 223.71 598.385 224.214C598.121 224.706 597.989 225.312 597.989 226.032C597.989 227.1 598.259 227.928 598.799 228.516C599.351 229.092 600.041 229.38 600.869 229.38ZM610.097 222.522C610.397 222.018 610.793 221.628 611.285 221.352C611.789 221.064 612.383 220.92 613.067 220.92V223.044H612.545C611.741 223.044 611.129 223.248 610.709 223.656C610.301 224.064 610.097 224.772 610.097 225.78V231H608.045V221.082H610.097V222.522ZM626.96 220.92C627.74 220.92 628.436 221.082 629.048 221.406C629.672 221.73 630.158 222.21 630.506 222.846C630.866 223.482 631.046 224.25 631.046 225.15V231H629.012V225.456C629.012 224.568 628.79 223.89 628.346 223.422C627.902 222.942 627.296 222.702 626.528 222.702C625.76 222.702 625.148 222.942 624.692 223.422C624.248 223.89 624.026 224.568 624.026 225.456V231H621.992V225.456C621.992 224.568 621.77 223.89 621.326 223.422C620.882 222.942 620.276 222.702 619.508 222.702C618.74 222.702 618.128 222.942 617.672 223.422C617.228 223.89 617.006 224.568 617.006 225.456V231H614.954V221.082H617.006V222.216C617.342 221.808 617.768 221.49 618.284 221.262C618.8 221.034 619.352 220.92 619.94 220.92C620.732 220.92 621.44 221.088 622.064 221.424C622.688 221.76 623.168 222.246 623.504 222.882C623.804 222.282 624.272 221.808 624.908 221.46C625.544 221.1 626.228 220.92 626.96 220.92ZM642.639 221.082V231H640.587V229.83C640.263 230.238 639.837 230.562 639.309 230.802C638.793 231.03 638.241 231.144 637.653 231.144C636.873 231.144 636.171 230.982 635.547 230.658C634.935 230.334 634.449 229.854 634.089 229.218C633.741 228.582 633.567 227.814 633.567 226.914V221.082H635.601V226.608C635.601 227.496 635.823 228.18 636.267 228.66C636.711 229.128 637.317 229.362 638.085 229.362C638.853 229.362 639.459 229.128 639.903 228.66C640.359 228.18 640.587 227.496 640.587 226.608V221.082H642.639ZM647.398 217.68V231H645.346V217.68H647.398ZM651.136 219.768C650.764 219.768 650.452 219.642 650.2 219.39C649.948 219.138 649.822 218.826 649.822 218.454C649.822 218.082 649.948 217.77 650.2 217.518C650.452 217.266 650.764 217.14 651.136 217.14C651.496 217.14 651.802 217.266 652.054 217.518C652.306 217.77 652.432 218.082 652.432 218.454C652.432 218.826 652.306 219.138 652.054 219.39C651.802 219.642 651.496 219.768 651.136 219.768ZM652.144 221.082V231H650.092V221.082H652.144ZM656.89 222.522C657.19 222.018 657.586 221.628 658.078 221.352C658.582 221.064 659.176 220.92 659.86 220.92V223.044H659.338C658.534 223.044 657.922 223.248 657.502 223.656C657.094 224.064 656.89 224.772 656.89 225.78V231H654.838V221.082H656.89V222.522ZM665.738 225.996C665.738 225 665.942 224.118 666.35 223.35C666.77 222.582 667.334 221.988 668.042 221.568C668.762 221.136 669.56 220.92 670.436 220.92C671.084 220.92 671.72 221.064 672.344 221.352C672.98 221.628 673.484 222 673.856 222.468V217.68H675.926V231H673.856V229.506C673.52 229.986 673.052 230.382 672.452 230.694C671.864 231.006 671.186 231.162 670.418 231.162C669.554 231.162 668.762 230.946 668.042 230.514C667.334 230.07 666.77 229.458 666.35 228.678C665.942 227.886 665.738 226.992 665.738 225.996ZM673.856 226.032C673.856 225.348 673.712 224.754 673.424 224.25C673.148 223.746 672.782 223.362 672.326 223.098C671.87 222.834 671.378 222.702 670.85 222.702C670.322 222.702 669.83 222.834 669.374 223.098C668.918 223.35 668.546 223.728 668.258 224.232C667.982 224.724 667.844 225.312 667.844 225.996C667.844 226.68 667.982 227.28 668.258 227.796C668.546 228.312 668.918 228.708 669.374 228.984C669.842 229.248 670.334 229.38 670.85 229.38C671.378 229.38 671.87 229.248 672.326 228.984C672.782 228.72 673.148 228.336 673.424 227.832C673.712 227.316 673.856 226.716 673.856 226.032ZM679.665 219.768C679.293 219.768 678.981 219.642 678.729 219.39C678.477 219.138 678.351 218.826 678.351 218.454C678.351 218.082 678.477 217.77 678.729 217.518C678.981 217.266 679.293 217.14 679.665 217.14C680.025 217.14 680.331 217.266 680.583 217.518C680.835 217.77 680.961 218.082 680.961 218.454C680.961 218.826 680.835 219.138 680.583 219.39C680.331 219.642 680.025 219.768 679.665 219.768ZM680.673 221.082V231H678.621V221.082H680.673ZM690.095 222.558C690.443 222.078 690.917 221.688 691.517 221.388C692.129 221.076 692.807 220.92 693.551 220.92C694.427 220.92 695.219 221.13 695.927 221.55C696.635 221.97 697.193 222.57 697.601 223.35C698.009 224.118 698.213 225 698.213 225.996C698.213 226.992 698.009 227.886 697.601 228.678C697.193 229.458 696.629 230.07 695.909 230.514C695.201 230.946 694.415 231.162 693.551 231.162C692.783 231.162 692.099 231.012 691.499 230.712C690.911 230.412 690.443 230.028 690.095 229.56V231H688.043V217.68H690.095V222.558ZM696.125 225.996C696.125 225.312 695.981 224.724 695.693 224.232C695.417 223.728 695.045 223.35 694.577 223.098C694.121 222.834 693.629 222.702 693.101 222.702C692.585 222.702 692.093 222.834 691.625 223.098C691.169 223.362 690.797 223.746 690.509 224.25C690.233 224.754 690.095 225.348 690.095 226.032C690.095 226.716 690.233 227.316 690.509 227.832C690.797 228.336 691.169 228.72 691.625 228.984C692.093 229.248 692.585 229.38 693.101 229.38C693.629 229.38 694.121 229.248 694.577 228.984C695.045 228.708 695.417 228.312 695.693 227.796C695.981 227.28 696.125 226.68 696.125 225.996ZM699.559 225.996C699.559 225 699.763 224.118 700.171 223.35C700.591 222.582 701.155 221.988 701.863 221.568C702.583 221.136 703.375 220.92 704.239 220.92C705.019 220.92 705.697 221.076 706.273 221.388C706.861 221.688 707.329 222.066 707.677 222.522V221.082H709.747V231H707.677V229.524C707.329 229.992 706.855 230.382 706.255 230.694C705.655 231.006 704.971 231.162 704.203 231.162C703.351 231.162 702.571 230.946 701.863 230.514C701.155 230.07 700.591 229.458 700.171 228.678C699.763 227.886 699.559 226.992 699.559 225.996ZM707.677 226.032C707.677 225.348 707.533 224.754 707.245 224.25C706.969 223.746 706.603 223.362 706.147 223.098C705.691 222.834 705.199 222.702 704.671 222.702C704.143 222.702 703.651 222.834 703.195 223.098C702.739 223.35 702.367 223.728 702.079 224.232C701.803 224.724 701.665 225.312 701.665 225.996C701.665 226.68 701.803 227.28 702.079 227.796C702.367 228.312 702.739 228.708 703.195 228.984C703.663 229.248 704.155 229.38 704.671 229.38C705.199 229.38 705.691 229.248 706.147 228.984C706.603 228.72 706.969 228.336 707.245 227.832C707.533 227.316 707.677 226.716 707.677 226.032ZM725.762 221.082L722.684 231H720.524L718.526 223.674L716.528 231H714.368L711.272 221.082H713.36L715.43 229.056L717.536 221.082H719.678L721.694 229.02L723.746 221.082H725.762ZM726.611 225.996C726.611 225 726.815 224.118 727.223 223.35C727.643 222.582 728.207 221.988 728.915 221.568C729.635 221.136 730.427 220.92 731.291 220.92C732.071 220.92 732.749 221.076 733.325 221.388C733.913 221.688 734.381 222.066 734.729 222.522V221.082H736.799V231H734.729V229.524C734.381 229.992 733.907 230.382 733.307 230.694C732.707 231.006 732.023 231.162 731.255 231.162C730.403 231.162 729.623 230.946 728.915 230.514C728.207 230.07 727.643 229.458 727.223 228.678C726.815 227.886 726.611 226.992 726.611 225.996ZM734.729 226.032C734.729 225.348 734.585 224.754 734.297 224.25C734.021 223.746 733.655 223.362 733.199 223.098C732.743 222.834 732.251 222.702 731.723 222.702C731.195 222.702 730.703 222.834 730.247 223.098C729.791 223.35 729.419 223.728 729.131 224.232C728.855 224.724 728.717 225.312 728.717 225.996C728.717 226.68 728.855 227.28 729.131 227.796C729.419 228.312 729.791 228.708 730.247 228.984C730.715 229.248 731.207 229.38 731.723 229.38C732.251 229.38 732.743 229.248 733.199 228.984C733.655 228.72 734.021 228.336 734.297 227.832C734.585 227.316 734.729 226.716 734.729 226.032ZM744.625 220.92C745.381 220.92 746.053 221.082 746.641 221.406C747.241 221.73 747.709 222.21 748.045 222.846C748.393 223.482 748.567 224.25 748.567 225.15V231H746.533V225.456C746.533 224.568 746.311 223.89 745.867 223.422C745.423 222.942 744.817 222.702 744.049 222.702C743.281 222.702 742.669 222.942 742.213 223.422C741.769 223.89 741.547 224.568 741.547 225.456V231H739.495V217.68H741.547V222.234C741.895 221.814 742.333 221.49 742.861 221.262C743.401 221.034 743.989 220.92 744.625 220.92ZM756.904 219.768C756.532 219.768 756.22 219.642 755.968 219.39C755.716 219.138 755.59 218.826 755.59 218.454C755.59 218.082 755.716 217.77 755.968 217.518C756.22 217.266 756.532 217.14 756.904 217.14C757.264 217.14 757.57 217.266 757.822 217.518C758.074 217.77 758.2 218.082 758.2 218.454C758.2 218.826 758.074 219.138 757.822 219.39C757.57 219.642 757.264 219.768 756.904 219.768ZM757.912 221.082V231H755.86V221.082H757.912ZM765.61 220.92C766.39 220.92 767.086 221.082 767.698 221.406C768.322 221.73 768.808 222.21 769.156 222.846C769.504 223.482 769.678 224.25 769.678 225.15V231H767.644V225.456C767.644 224.568 767.422 223.89 766.978 223.422C766.534 222.942 765.928 222.702 765.16 222.702C764.392 222.702 763.78 222.942 763.324 223.422C762.88 223.89 762.658 224.568 762.658 225.456V231H760.606V221.082H762.658V222.216C762.994 221.808 763.42 221.49 763.936 221.262C764.464 221.034 765.022 220.92 765.61 220.92ZM773.339 219.768C772.967 219.768 772.655 219.642 772.403 219.39C772.151 219.138 772.025 218.826 772.025 218.454C772.025 218.082 772.151 217.77 772.403 217.518C772.655 217.266 772.967 217.14 773.339 217.14C773.699 217.14 774.005 217.266 774.257 217.518C774.509 217.77 774.635 218.082 774.635 218.454C774.635 218.826 774.509 219.138 774.257 219.39C774.005 219.642 773.699 219.768 773.339 219.768ZM774.347 221.082V231H772.295V221.082H774.347ZM781.033 225.996C781.033 225 781.237 224.118 781.645 223.35C782.065 222.582 782.629 221.988 783.337 221.568C784.057 221.136 784.855 220.92 785.731 220.92C786.379 220.92 787.015 221.064 787.639 221.352C788.275 221.628 788.779 222 789.151 222.468V217.68H791.221V231H789.151V229.506C788.815 229.986 788.347 230.382 787.747 230.694C787.159 231.006 786.481 231.162 785.713 231.162C784.849 231.162 784.057 230.946 783.337 230.514C782.629 230.07 782.065 229.458 781.645 228.678C781.237 227.886 781.033 226.992 781.033 225.996ZM789.151 226.032C789.151 225.348 789.007 224.754 788.719 224.25C788.443 223.746 788.077 223.362 787.621 223.098C787.165 222.834 786.673 222.702 786.145 222.702C785.617 222.702 785.125 222.834 784.669 223.098C784.213 223.35 783.841 223.728 783.553 224.232C783.277 224.724 783.139 225.312 783.139 225.996C783.139 226.68 783.277 227.28 783.553 227.796C783.841 228.312 784.213 228.708 784.669 228.984C785.137 229.248 785.629 229.38 786.145 229.38C786.673 229.38 787.165 229.248 787.621 228.984C788.077 228.72 788.443 228.336 788.719 227.832C789.007 227.316 789.151 226.716 789.151 226.032ZM803.006 225.798C803.006 226.17 802.982 226.506 802.934 226.806H795.356C795.416 227.598 795.71 228.234 796.238 228.714C796.766 229.194 797.414 229.434 798.182 229.434C799.286 229.434 800.066 228.972 800.522 228.048H802.736C802.436 228.96 801.89 229.71 801.098 230.298C800.318 230.874 799.346 231.162 798.182 231.162C797.234 231.162 796.382 230.952 795.626 230.532C794.882 230.1 794.294 229.5 793.862 228.732C793.442 227.952 793.232 227.052 793.232 226.032C793.232 225.012 793.436 224.118 793.844 223.35C794.264 222.57 794.846 221.97 795.59 221.55C796.346 221.13 797.21 220.92 798.182 220.92C799.118 220.92 799.952 221.124 800.684 221.532C801.416 221.94 801.986 222.516 802.394 223.26C802.802 223.992 803.006 224.838 803.006 225.798ZM800.864 225.15C800.852 224.394 800.582 223.788 800.054 223.332C799.526 222.876 798.872 222.648 798.092 222.648C797.384 222.648 796.778 222.876 796.274 223.332C795.77 223.776 795.47 224.382 795.374 225.15H800.864ZM810.03 220.92C810.81 220.92 811.506 221.082 812.118 221.406C812.742 221.73 813.228 222.21 813.576 222.846C813.924 223.482 814.098 224.25 814.098 225.15V231H812.064V225.456C812.064 224.568 811.842 223.89 811.398 223.422C810.954 222.942 810.348 222.702 809.58 222.702C808.812 222.702 808.2 222.942 807.744 223.422C807.3 223.89 807.078 224.568 807.078 225.456V231H805.026V221.082H807.078V222.216C807.414 221.808 807.84 221.49 808.356 221.262C808.884 221.034 809.442 220.92 810.03 220.92ZM820.711 220.92C821.479 220.92 822.157 221.076 822.745 221.388C823.345 221.688 823.813 222.066 824.149 222.522V221.082H826.219V231.162C826.219 232.074 826.027 232.884 825.643 233.592C825.259 234.312 824.701 234.876 823.969 235.284C823.249 235.692 822.385 235.896 821.377 235.896C820.033 235.896 818.917 235.578 818.029 234.942C817.141 234.318 816.637 233.466 816.517 232.386H818.551C818.707 232.902 819.037 233.316 819.541 233.628C820.057 233.952 820.669 234.114 821.377 234.114C822.205 234.114 822.871 233.862 823.375 233.358C823.891 232.854 824.149 232.122 824.149 231.162V229.506C823.801 229.974 823.327 230.37 822.727 230.694C822.139 231.006 821.467 231.162 820.711 231.162C819.847 231.162 819.055 230.946 818.335 230.514C817.627 230.07 817.063 229.458 816.643 228.678C816.235 227.886 816.031 226.992 816.031 225.996C816.031 225 816.235 224.118 816.643 223.35C817.063 222.582 817.627 221.988 818.335 221.568C819.055 221.136 819.847 220.92 820.711 220.92ZM824.149 226.032C824.149 225.348 824.005 224.754 823.717 224.25C823.441 223.746 823.075 223.362 822.619 223.098C822.163 222.834 821.671 222.702 821.143 222.702C820.615 222.702 820.123 222.834 819.667 223.098C819.211 223.35 818.839 223.728 818.551 224.232C818.275 224.724 818.137 225.312 818.137 225.996C818.137 226.68 818.275 227.28 818.551 227.796C818.839 228.312 819.211 228.708 819.667 228.984C820.135 229.248 820.627 229.38 821.143 229.38C821.671 229.38 822.163 229.248 822.619 228.984C823.075 228.72 823.441 228.336 823.717 227.832C824.005 227.316 824.149 226.716 824.149 226.032ZM828.23 225.996C828.23 225 828.434 224.118 828.842 223.35C829.262 222.582 829.826 221.988 830.534 221.568C831.254 221.136 832.046 220.92 832.91 220.92C833.69 220.92 834.368 221.076 834.944 221.388C835.532 221.688 836 222.066 836.348 222.522V221.082H838.418V231H836.348V229.524C836 229.992 835.526 230.382 834.926 230.694C834.326 231.006 833.642 231.162 832.874 231.162C832.022 231.162 831.242 230.946 830.534 230.514C829.826 230.07 829.262 229.458 828.842 228.678C828.434 227.886 828.23 226.992 828.23 225.996ZM836.348 226.032C836.348 225.348 836.204 224.754 835.916 224.25C835.64 223.746 835.274 223.362 834.818 223.098C834.362 222.834 833.87 222.702 833.342 222.702C832.814 222.702 832.322 222.834 831.866 223.098C831.41 223.35 831.038 223.728 830.75 224.232C830.474 224.724 830.336 225.312 830.336 225.996C830.336 226.68 830.474 227.28 830.75 227.796C831.038 228.312 831.41 228.708 831.866 228.984C832.334 229.248 832.826 229.38 833.342 229.38C833.87 229.38 834.362 229.248 834.818 228.984C835.274 228.72 835.64 228.336 835.916 227.832C836.204 227.316 836.348 226.716 836.348 226.032ZM846.118 220.92C846.898 220.92 847.594 221.082 848.206 221.406C848.83 221.73 849.316 222.21 849.664 222.846C850.012 223.482 850.186 224.25 850.186 225.15V231H848.152V225.456C848.152 224.568 847.93 223.89 847.486 223.422C847.042 222.942 846.436 222.702 845.668 222.702C844.9 222.702 844.288 222.942 843.832 223.422C843.388 223.89 843.166 224.568 843.166 225.456V231H841.114V221.082H843.166V222.216C843.502 221.808 843.928 221.49 844.444 221.262C844.972 221.034 845.53 220.92 846.118 220.92ZM859.531 222.558C859.879 222.078 860.353 221.688 860.953 221.388C861.565 221.076 862.243 220.92 862.987 220.92C863.863 220.92 864.655 221.13 865.363 221.55C866.071 221.97 866.629 222.57 867.037 223.35C867.445 224.118 867.649 225 867.649 225.996C867.649 226.992 867.445 227.886 867.037 228.678C866.629 229.458 866.065 230.07 865.345 230.514C864.637 230.946 863.851 231.162 862.987 231.162C862.219 231.162 861.535 231.012 860.935 230.712C860.347 230.412 859.879 230.028 859.531 229.56V231H857.479V217.68H859.531V222.558ZM865.561 225.996C865.561 225.312 865.417 224.724 865.129 224.232C864.853 223.728 864.481 223.35 864.013 223.098C863.557 222.834 863.065 222.702 862.537 222.702C862.021 222.702 861.529 222.834 861.061 223.098C860.605 223.362 860.233 223.746 859.945 224.25C859.669 224.754 859.531 225.348 859.531 226.032C859.531 226.716 859.669 227.316 859.945 227.832C860.233 228.336 860.605 228.72 861.061 228.984C861.529 229.248 862.021 229.38 862.537 229.38C863.065 229.38 863.557 229.248 864.013 228.984C864.481 228.708 864.853 228.312 865.129 227.796C865.417 227.28 865.561 226.68 865.561 225.996ZM878.768 225.798C878.768 226.17 878.744 226.506 878.696 226.806H871.118C871.178 227.598 871.472 228.234 872 228.714C872.528 229.194 873.176 229.434 873.944 229.434C875.048 229.434 875.828 228.972 876.284 228.048H878.498C878.198 228.96 877.652 229.71 876.86 230.298C876.08 230.874 875.108 231.162 873.944 231.162C872.996 231.162 872.144 230.952 871.388 230.532C870.644 230.1 870.056 229.5 869.624 228.732C869.204 227.952 868.994 227.052 868.994 226.032C868.994 225.012 869.198 224.118 869.606 223.35C870.026 222.57 870.608 221.97 871.352 221.55C872.108 221.13 872.972 220.92 873.944 220.92C874.88 220.92 875.714 221.124 876.446 221.532C877.178 221.94 877.748 222.516 878.156 223.26C878.564 223.992 878.768 224.838 878.768 225.798ZM876.626 225.15C876.614 224.394 876.344 223.788 875.816 223.332C875.288 222.876 874.634 222.648 873.854 222.648C873.146 222.648 872.54 222.876 872.036 223.332C871.532 223.776 871.232 224.382 871.136 225.15H876.626ZM885.792 220.92C886.572 220.92 887.268 221.082 887.88 221.406C888.504 221.73 888.99 222.21 889.338 222.846C889.686 223.482 889.86 224.25 889.86 225.15V231H887.826V225.456C887.826 224.568 887.604 223.89 887.16 223.422C886.716 222.942 886.11 222.702 885.342 222.702C884.574 222.702 883.962 222.942 883.506 223.422C883.062 223.89 882.84 224.568 882.84 225.456V231H880.788V221.082H882.84V222.216C883.176 221.808 883.602 221.49 884.118 221.262C884.646 221.034 885.204 220.92 885.792 220.92ZM891.793 225.996C891.793 225 891.997 224.118 892.405 223.35C892.825 222.582 893.389 221.988 894.097 221.568C894.817 221.136 895.609 220.92 896.473 220.92C897.253 220.92 897.931 221.076 898.507 221.388C899.095 221.688 899.563 222.066 899.911 222.522V221.082H901.981V231H899.911V229.524C899.563 229.992 899.089 230.382 898.489 230.694C897.889 231.006 897.205 231.162 896.437 231.162C895.585 231.162 894.805 230.946 894.097 230.514C893.389 230.07 892.825 229.458 892.405 228.678C891.997 227.886 891.793 226.992 891.793 225.996ZM899.911 226.032C899.911 225.348 899.767 224.754 899.479 224.25C899.203 223.746 898.837 223.362 898.381 223.098C897.925 222.834 897.433 222.702 896.905 222.702C896.377 222.702 895.885 222.834 895.429 223.098C894.973 223.35 894.601 223.728 894.313 224.232C894.037 224.724 893.899 225.312 893.899 225.996C893.899 226.68 894.037 227.28 894.313 227.796C894.601 228.312 894.973 228.708 895.429 228.984C895.897 229.248 896.389 229.38 896.905 229.38C897.433 229.38 897.925 229.248 898.381 228.984C898.837 228.72 899.203 228.336 899.479 227.832C899.767 227.316 899.911 226.716 899.911 226.032ZM906.728 222.522C907.028 222.018 907.424 221.628 907.916 221.352C908.42 221.064 909.014 220.92 909.698 220.92V223.044H909.176C908.372 223.044 907.76 223.248 907.34 223.656C906.932 224.064 906.728 224.772 906.728 225.78V231H904.676V221.082H906.728V222.522ZM925.242 221.082V231H923.19V229.83C922.866 230.238 922.44 230.562 921.912 230.802C921.396 231.03 920.844 231.144 920.256 231.144C919.476 231.144 918.774 230.982 918.15 230.658C917.538 230.334 917.052 229.854 916.692 229.218C916.344 228.582 916.17 227.814 916.17 226.914V221.082H918.204V226.608C918.204 227.496 918.426 228.18 918.87 228.66C919.314 229.128 919.92 229.362 920.688 229.362C921.456 229.362 922.062 229.128 922.506 228.66C922.962 228.18 923.19 227.496 923.19 226.608V221.082H925.242ZM932.954 220.92C933.734 220.92 934.43 221.082 935.042 221.406C935.666 221.73 936.152 222.21 936.5 222.846C936.848 223.482 937.022 224.25 937.022 225.15V231H934.988V225.456C934.988 224.568 934.766 223.89 934.322 223.422C933.878 222.942 933.272 222.702 932.504 222.702C931.736 222.702 931.124 222.942 930.668 223.422C930.224 223.89 930.002 224.568 930.002 225.456V231H927.95V221.082H930.002V222.216C930.338 221.808 930.764 221.49 931.28 221.262C931.808 221.034 932.366 220.92 932.954 220.92ZM942.033 222.756V228.246C942.033 228.618 942.117 228.888 942.285 229.056C942.465 229.212 942.765 229.29 943.185 229.29H944.445V231H942.825C941.901 231 941.193 230.784 940.701 230.352C940.209 229.92 939.963 229.218 939.963 228.246V222.756H938.793V221.082H939.963V218.616H942.033V221.082H944.445V222.756H942.033ZM955.318 221.082V231H953.266V229.83C952.942 230.238 952.516 230.562 951.988 230.802C951.472 231.03 950.92 231.144 950.332 231.144C949.552 231.144 948.85 230.982 948.226 230.658C947.614 230.334 947.128 229.854 946.768 229.218C946.42 228.582 946.246 227.814 946.246 226.914V221.082H948.28V226.608C948.28 227.496 948.502 228.18 948.946 228.66C949.39 229.128 949.996 229.362 950.764 229.362C951.532 229.362 952.138 229.128 952.582 228.66C953.038 228.18 953.266 227.496 953.266 226.608V221.082H955.318ZM961.95 226.05L966.522 231H963.75L960.078 226.734V231H958.026V217.68H960.078V225.42L963.678 221.082H966.522L961.95 226.05ZM626.292 247.92C627.072 247.92 627.768 248.082 628.38 248.406C629.004 248.73 629.49 249.21 629.838 249.846C630.198 250.482 630.378 251.25 630.378 252.15V258H628.344V252.456C628.344 251.568 628.122 250.89 627.678 250.422C627.234 249.942 626.628 249.702 625.86 249.702C625.092 249.702 624.48 249.942 624.024 250.422C623.58 250.89 623.358 251.568 623.358 252.456V258H621.324V252.456C621.324 251.568 621.102 250.89 620.658 250.422C620.214 249.942 619.608 249.702 618.84 249.702C618.072 249.702 617.46 249.942 617.004 250.422C616.56 250.89 616.338 251.568 616.338 252.456V258H614.286V248.082H616.338V249.216C616.674 248.808 617.1 248.49 617.616 248.262C618.132 248.034 618.684 247.92 619.272 247.92C620.064 247.92 620.772 248.088 621.396 248.424C622.02 248.76 622.5 249.246 622.836 249.882C623.136 249.282 623.604 248.808 624.24 248.46C624.876 248.1 625.56 247.92 626.292 247.92ZM642.079 252.798C642.079 253.17 642.055 253.506 642.007 253.806H634.429C634.489 254.598 634.783 255.234 635.311 255.714C635.839 256.194 636.487 256.434 637.255 256.434C638.359 256.434 639.139 255.972 639.595 255.048H641.809C641.509 255.96 640.963 256.71 640.171 257.298C639.391 257.874 638.419 258.162 637.255 258.162C636.307 258.162 635.455 257.952 634.699 257.532C633.955 257.1 633.367 256.5 632.935 255.732C632.515 254.952 632.305 254.052 632.305 253.032C632.305 252.012 632.509 251.118 632.917 250.35C633.337 249.57 633.919 248.97 634.663 248.55C635.419 248.13 636.283 247.92 637.255 247.92C638.191 247.92 639.025 248.124 639.757 248.532C640.489 248.94 641.059 249.516 641.467 250.26C641.875 250.992 642.079 251.838 642.079 252.798ZM639.937 252.15C639.925 251.394 639.655 250.788 639.127 250.332C638.599 249.876 637.945 249.648 637.165 249.648C636.457 249.648 635.851 249.876 635.347 250.332C634.843 250.776 634.543 251.382 634.447 252.15H639.937ZM649.102 247.92C649.882 247.92 650.578 248.082 651.19 248.406C651.814 248.73 652.3 249.21 652.648 249.846C652.996 250.482 653.17 251.25 653.17 252.15V258H651.136V252.456C651.136 251.568 650.914 250.89 650.47 250.422C650.026 249.942 649.42 249.702 648.652 249.702C647.884 249.702 647.272 249.942 646.816 250.422C646.372 250.89 646.15 251.568 646.15 252.456V258H644.098V248.082H646.15V249.216C646.486 248.808 646.912 248.49 647.428 248.262C647.956 248.034 648.514 247.92 649.102 247.92ZM659.784 247.92C660.552 247.92 661.23 248.076 661.818 248.388C662.418 248.688 662.886 249.066 663.222 249.522V248.082H665.292V258.162C665.292 259.074 665.1 259.884 664.716 260.592C664.332 261.312 663.774 261.876 663.042 262.284C662.322 262.692 661.458 262.896 660.45 262.896C659.106 262.896 657.99 262.578 657.102 261.942C656.214 261.318 655.71 260.466 655.59 259.386H657.624C657.78 259.902 658.11 260.316 658.614 260.628C659.13 260.952 659.742 261.114 660.45 261.114C661.278 261.114 661.944 260.862 662.448 260.358C662.964 259.854 663.222 259.122 663.222 258.162V256.506C662.874 256.974 662.4 257.37 661.8 257.694C661.212 258.006 660.54 258.162 659.784 258.162C658.92 258.162 658.128 257.946 657.408 257.514C656.7 257.07 656.136 256.458 655.716 255.678C655.308 254.886 655.104 253.992 655.104 252.996C655.104 252 655.308 251.118 655.716 250.35C656.136 249.582 656.7 248.988 657.408 248.568C658.128 248.136 658.92 247.92 659.784 247.92ZM663.222 253.032C663.222 252.348 663.078 251.754 662.79 251.25C662.514 250.746 662.148 250.362 661.692 250.098C661.236 249.834 660.744 249.702 660.216 249.702C659.688 249.702 659.196 249.834 658.74 250.098C658.284 250.35 657.912 250.728 657.624 251.232C657.348 251.724 657.21 252.312 657.21 252.996C657.21 253.68 657.348 254.28 657.624 254.796C657.912 255.312 658.284 255.708 658.74 255.984C659.208 256.248 659.7 256.38 660.216 256.38C660.744 256.38 661.236 256.248 661.692 255.984C662.148 255.72 662.514 255.336 662.79 254.832C663.078 254.316 663.222 253.716 663.222 253.032ZM667.303 252.996C667.303 252 667.507 251.118 667.915 250.35C668.335 249.582 668.899 248.988 669.607 248.568C670.327 248.136 671.119 247.92 671.983 247.92C672.763 247.92 673.441 248.076 674.017 248.388C674.605 248.688 675.073 249.066 675.421 249.522V248.082H677.491V258H675.421V256.524C675.073 256.992 674.599 257.382 673.999 257.694C673.399 258.006 672.715 258.162 671.947 258.162C671.095 258.162 670.315 257.946 669.607 257.514C668.899 257.07 668.335 256.458 667.915 255.678C667.507 254.886 667.303 253.992 667.303 252.996ZM675.421 253.032C675.421 252.348 675.277 251.754 674.989 251.25C674.713 250.746 674.347 250.362 673.891 250.098C673.435 249.834 672.943 249.702 672.415 249.702C671.887 249.702 671.395 249.834 670.939 250.098C670.483 250.35 670.111 250.728 669.823 251.232C669.547 251.724 669.409 252.312 669.409 252.996C669.409 253.68 669.547 254.28 669.823 254.796C670.111 255.312 670.483 255.708 670.939 255.984C671.407 256.248 671.899 256.38 672.415 256.38C672.943 256.38 673.435 256.248 673.891 255.984C674.347 255.72 674.713 255.336 674.989 254.832C675.277 254.316 675.421 253.716 675.421 253.032ZM692.192 247.92C692.972 247.92 693.668 248.082 694.28 248.406C694.904 248.73 695.39 249.21 695.738 249.846C696.098 250.482 696.278 251.25 696.278 252.15V258H694.244V252.456C694.244 251.568 694.022 250.89 693.578 250.422C693.134 249.942 692.528 249.702 691.76 249.702C690.992 249.702 690.38 249.942 689.924 250.422C689.48 250.89 689.258 251.568 689.258 252.456V258H687.224V252.456C687.224 251.568 687.002 250.89 686.558 250.422C686.114 249.942 685.508 249.702 684.74 249.702C683.972 249.702 683.36 249.942 682.904 250.422C682.46 250.89 682.238 251.568 682.238 252.456V258H680.186V248.082H682.238V249.216C682.574 248.808 683 248.49 683.516 248.262C684.032 248.034 684.584 247.92 685.172 247.92C685.964 247.92 686.672 248.088 687.296 248.424C687.92 248.76 688.4 249.246 688.736 249.882C689.036 249.282 689.504 248.808 690.14 248.46C690.776 248.1 691.46 247.92 692.192 247.92ZM700.941 249.558C701.289 249.078 701.763 248.688 702.363 248.388C702.975 248.076 703.653 247.92 704.397 247.92C705.273 247.92 706.065 248.13 706.773 248.55C707.481 248.97 708.039 249.57 708.447 250.35C708.855 251.118 709.059 252 709.059 252.996C709.059 253.992 708.855 254.886 708.447 255.678C708.039 256.458 707.475 257.07 706.755 257.514C706.047 257.946 705.261 258.162 704.397 258.162C703.629 258.162 702.945 258.012 702.345 257.712C701.757 257.412 701.289 257.028 700.941 256.56V258H698.889V244.68H700.941V249.558ZM706.971 252.996C706.971 252.312 706.827 251.724 706.539 251.232C706.263 250.728 705.891 250.35 705.423 250.098C704.967 249.834 704.475 249.702 703.947 249.702C703.431 249.702 702.939 249.834 702.471 250.098C702.015 250.362 701.643 250.746 701.355 251.25C701.079 251.754 700.941 252.348 700.941 253.032C700.941 253.716 701.079 254.316 701.355 254.832C701.643 255.336 702.015 255.72 702.471 255.984C702.939 256.248 703.431 256.38 703.947 256.38C704.475 256.38 704.967 256.248 705.423 255.984C705.891 255.708 706.263 255.312 706.539 254.796C706.827 254.28 706.971 253.68 706.971 252.996ZM712.132 246.768C711.76 246.768 711.448 246.642 711.196 246.39C710.944 246.138 710.818 245.826 710.818 245.454C710.818 245.082 710.944 244.77 711.196 244.518C711.448 244.266 711.76 244.14 712.132 244.14C712.492 244.14 712.798 244.266 713.05 244.518C713.302 244.77 713.428 245.082 713.428 245.454C713.428 245.826 713.302 246.138 713.05 246.39C712.798 246.642 712.492 246.768 712.132 246.768ZM713.14 248.082V258H711.088V248.082H713.14ZM717.886 244.68V258H715.834V244.68H717.886ZM727.308 249.54C727.656 249.084 728.13 248.7 728.73 248.388C729.33 248.076 730.008 247.92 730.764 247.92C731.628 247.92 732.414 248.136 733.122 248.568C733.842 248.988 734.406 249.582 734.814 250.35C735.222 251.118 735.426 252 735.426 252.996C735.426 253.992 735.222 254.886 734.814 255.678C734.406 256.458 733.842 257.07 733.122 257.514C732.414 257.946 731.628 258.162 730.764 258.162C730.008 258.162 729.336 258.012 728.748 257.712C728.16 257.4 727.68 257.016 727.308 256.56V262.716H725.256V248.082H727.308V249.54ZM733.338 252.996C733.338 252.312 733.194 251.724 732.906 251.232C732.63 250.728 732.258 250.35 731.79 250.098C731.334 249.834 730.842 249.702 730.314 249.702C729.798 249.702 729.306 249.834 728.838 250.098C728.382 250.362 728.01 250.746 727.722 251.25C727.446 251.754 727.308 252.348 727.308 253.032C727.308 253.716 727.446 254.316 727.722 254.832C728.01 255.336 728.382 255.72 728.838 255.984C729.306 256.248 729.798 256.38 730.314 256.38C730.842 256.38 731.334 256.248 731.79 255.984C732.258 255.708 732.63 255.312 732.906 254.796C733.194 254.28 733.338 253.68 733.338 252.996ZM736.771 252.996C736.771 252 736.975 251.118 737.383 250.35C737.803 249.582 738.367 248.988 739.075 248.568C739.795 248.136 740.587 247.92 741.451 247.92C742.231 247.92 742.909 248.076 743.485 248.388C744.073 248.688 744.541 249.066 744.889 249.522V248.082H746.959V258H744.889V256.524C744.541 256.992 744.067 257.382 743.467 257.694C742.867 258.006 742.183 258.162 741.415 258.162C740.563 258.162 739.783 257.946 739.075 257.514C738.367 257.07 737.803 256.458 737.383 255.678C736.975 254.886 736.771 253.992 736.771 252.996ZM744.889 253.032C744.889 252.348 744.745 251.754 744.457 251.25C744.181 250.746 743.815 250.362 743.359 250.098C742.903 249.834 742.411 249.702 741.883 249.702C741.355 249.702 740.863 249.834 740.407 250.098C739.951 250.35 739.579 250.728 739.291 251.232C739.015 251.724 738.877 252.312 738.877 252.996C738.877 253.68 739.015 254.28 739.291 254.796C739.579 255.312 739.951 255.708 740.407 255.984C740.875 256.248 741.367 256.38 741.883 256.38C742.411 256.38 742.903 256.248 743.359 255.984C743.815 255.72 744.181 255.336 744.457 254.832C744.745 254.316 744.889 253.716 744.889 253.032ZM753.579 253.05L758.151 258H755.379L751.707 253.734V258H749.655V244.68H751.707V252.42L755.307 248.082H758.151L753.579 253.05ZM768.711 252.798C768.711 253.17 768.687 253.506 768.639 253.806H761.061C761.121 254.598 761.415 255.234 761.943 255.714C762.471 256.194 763.119 256.434 763.887 256.434C764.991 256.434 765.771 255.972 766.227 255.048H768.441C768.141 255.96 767.595 256.71 766.803 257.298C766.023 257.874 765.051 258.162 763.887 258.162C762.939 258.162 762.087 257.952 761.331 257.532C760.587 257.1 759.999 256.5 759.567 255.732C759.147 254.952 758.937 254.052 758.937 253.032C758.937 252.012 759.141 251.118 759.549 250.35C759.969 249.57 760.551 248.97 761.295 248.55C762.051 248.13 762.915 247.92 763.887 247.92C764.823 247.92 765.657 248.124 766.389 248.532C767.121 248.94 767.691 249.516 768.099 250.26C768.507 250.992 768.711 251.838 768.711 252.798ZM766.569 252.15C766.557 251.394 766.287 250.788 765.759 250.332C765.231 249.876 764.577 249.648 763.797 249.648C763.089 249.648 762.483 249.876 761.979 250.332C761.475 250.776 761.175 251.382 761.079 252.15H766.569ZM773.125 249.756V255.246C773.125 255.618 773.209 255.888 773.377 256.056C773.557 256.212 773.857 256.29 774.277 256.29H775.537V258H773.917C772.993 258 772.285 257.784 771.793 257.352C771.301 256.92 771.055 256.218 771.055 255.246V249.756H769.885V248.082H771.055V245.616H773.125V248.082H775.537V249.756H773.125ZM795.424 248.082L792.346 258H790.186L788.188 250.674L786.19 258H784.03L780.934 248.082H783.022L785.092 256.056L787.198 248.082H789.34L791.356 256.02L793.408 248.082H795.424ZM798.001 246.768C797.629 246.768 797.317 246.642 797.065 246.39C796.813 246.138 796.687 245.826 796.687 245.454C796.687 245.082 796.813 244.77 797.065 244.518C797.317 244.266 797.629 244.14 798.001 244.14C798.361 244.14 798.667 244.266 798.919 244.518C799.171 244.77 799.297 245.082 799.297 245.454C799.297 245.826 799.171 246.138 798.919 246.39C798.667 246.642 798.361 246.768 798.001 246.768ZM799.009 248.082V258H796.957V248.082H799.009ZM805.304 258.162C804.524 258.162 803.822 258.024 803.198 257.748C802.586 257.46 802.1 257.076 801.74 256.596C801.38 256.104 801.188 255.558 801.164 254.958H803.288C803.324 255.378 803.522 255.732 803.882 256.02C804.254 256.296 804.716 256.434 805.268 256.434C805.844 256.434 806.288 256.326 806.6 256.11C806.924 255.882 807.086 255.594 807.086 255.246C807.086 254.874 806.906 254.598 806.546 254.418C806.198 254.238 805.64 254.04 804.872 253.824C804.128 253.62 803.522 253.422 803.054 253.23C802.586 253.038 802.178 252.744 801.83 252.348C801.494 251.952 801.326 251.43 801.326 250.782C801.326 250.254 801.482 249.774 801.794 249.342C802.106 248.898 802.55 248.55 803.126 248.298C803.714 248.046 804.386 247.92 805.142 247.92C806.27 247.92 807.176 248.208 807.86 248.784C808.556 249.348 808.928 250.122 808.976 251.106H806.924C806.888 250.662 806.708 250.308 806.384 250.044C806.06 249.78 805.622 249.648 805.07 249.648C804.53 249.648 804.116 249.75 803.828 249.954C803.54 250.158 803.396 250.428 803.396 250.764C803.396 251.028 803.492 251.25 803.684 251.43C803.876 251.61 804.11 251.754 804.386 251.862C804.662 251.958 805.07 252.084 805.61 252.24C806.33 252.432 806.918 252.63 807.374 252.834C807.842 253.026 808.244 253.314 808.58 253.698C808.916 254.082 809.09 254.592 809.102 255.228C809.102 255.792 808.946 256.296 808.634 256.74C808.322 257.184 807.878 257.532 807.302 257.784C806.738 258.036 806.072 258.162 805.304 258.162ZM810.635 252.996C810.635 252 810.839 251.118 811.247 250.35C811.667 249.582 812.231 248.988 812.939 248.568C813.659 248.136 814.451 247.92 815.315 247.92C816.095 247.92 816.773 248.076 817.349 248.388C817.937 248.688 818.405 249.066 818.753 249.522V248.082H820.823V258H818.753V256.524C818.405 256.992 817.931 257.382 817.331 257.694C816.731 258.006 816.047 258.162 815.279 258.162C814.427 258.162 813.647 257.946 812.939 257.514C812.231 257.07 811.667 256.458 811.247 255.678C810.839 254.886 810.635 253.992 810.635 252.996ZM818.753 253.032C818.753 252.348 818.609 251.754 818.321 251.25C818.045 250.746 817.679 250.362 817.223 250.098C816.767 249.834 816.275 249.702 815.747 249.702C815.219 249.702 814.727 249.834 814.271 250.098C813.815 250.35 813.443 250.728 813.155 251.232C812.879 251.724 812.741 252.312 812.741 252.996C812.741 253.68 812.879 254.28 813.155 254.796C813.443 255.312 813.815 255.708 814.271 255.984C814.739 256.248 815.231 256.38 815.747 256.38C816.275 256.38 816.767 256.248 817.223 255.984C817.679 255.72 818.045 255.336 818.321 254.832C818.609 254.316 818.753 253.716 818.753 253.032ZM825.912 249.756V255.246C825.912 255.618 825.996 255.888 826.164 256.056C826.344 256.212 826.644 256.29 827.064 256.29H828.324V258H826.704C825.78 258 825.072 257.784 824.58 257.352C824.088 256.92 823.842 256.218 823.842 255.246V249.756H822.672V248.082H823.842V245.616H825.912V248.082H828.324V249.756H825.912ZM829.531 252.996C829.531 252 829.735 251.118 830.143 250.35C830.563 249.582 831.127 248.988 831.835 248.568C832.555 248.136 833.347 247.92 834.211 247.92C834.991 247.92 835.669 248.076 836.245 248.388C836.833 248.688 837.301 249.066 837.649 249.522V248.082H839.719V258H837.649V256.524C837.301 256.992 836.827 257.382 836.227 257.694C835.627 258.006 834.943 258.162 834.175 258.162C833.323 258.162 832.543 257.946 831.835 257.514C831.127 257.07 830.563 256.458 830.143 255.678C829.735 254.886 829.531 253.992 829.531 252.996ZM837.649 253.032C837.649 252.348 837.505 251.754 837.217 251.25C836.941 250.746 836.575 250.362 836.119 250.098C835.663 249.834 835.171 249.702 834.643 249.702C834.115 249.702 833.623 249.834 833.167 250.098C832.711 250.35 832.339 250.728 832.051 251.232C831.775 251.724 831.637 252.312 831.637 252.996C831.637 253.68 831.775 254.28 832.051 254.796C832.339 255.312 832.711 255.708 833.167 255.984C833.635 256.248 834.127 256.38 834.643 256.38C835.171 256.38 835.663 256.248 836.119 255.984C836.575 255.72 836.941 255.336 837.217 254.832C837.505 254.316 837.649 253.716 837.649 253.032Z" fill="#1E1E1E" fill-opacity="0.61"/>
<path d="M0 311H127V315H0V311Z" fill="#030F4B"/>
<path d="M1329 308H1456V312H1329V308Z" fill="#030F4B"/>
<rect x="-1" y="287" width="76" height="4" fill="#030F4B"/>
<rect x="1364" y="283" width="76" height="4" fill="#030F4B"/>
</svg>
